# Blender 5.2.0 LTS
# www.blender.org
mtllib tiantui star handle.mtl
o unknown
v 0.022392 -0.351051 -0.091589
v 0.132987 -0.364165 -0.033411
v 0.132987 -0.364165 -0.091589
v 0.129702 -0.419688 -0.080877
v 0.028352 -0.416133 -0.062500
v 0.027138 -0.402887 -0.080877
v -0.051808 2.077058 -0.032677
v -0.059783 2.352029 -0.095208
v -0.059783 2.352029 -0.029792
v -0.166454 3.963080 -0.081141
v -0.120549 3.901870 -0.039406
v -0.120549 3.901870 -0.085593
v 0.080581 3.589833 -0.101507
v 0.043909 3.454139 -0.024170
v 0.043909 3.454139 -0.100828
v -0.010372 3.207356 -0.099589
v -0.375711 3.340292 -0.100498
v -0.042076 2.906093 -0.098054
v -0.036673 1.771358 -0.089110
v -0.051808 2.077058 -0.092323
v 0.057653 0.355087 -0.041223
v 0.035043 0.352406 -0.025646
v 0.052239 0.354444 -0.017071
v -0.008060 0.347296 -0.010045
v 0.034903 0.481713 -0.106256
v -0.103032 0.513465 -0.120594
v -0.081261 0.467941 -0.106256
v 0.078910 0.357606 -0.036273
v 0.068567 0.356380 -0.062500
v 0.078910 0.357606 -0.088728
v 0.057653 0.355087 -0.083778
v 0.052239 0.354444 -0.107928
v 0.035043 0.352406 -0.099354
v -0.008060 0.347296 -0.114955
v 0.034903 0.481713 -0.018744
v -0.103032 0.513465 -0.004406
v 0.045429 0.531064 -0.004406
v -0.083455 0.338358 -0.041223
v -0.068361 0.340149 -0.017071
v -0.062792 0.340808 -0.025646
v -0.094371 0.337065 -0.062500
v -0.095031 0.336987 -0.088728
v -0.108486 0.335390 -0.062500
v -0.062792 0.340808 -0.099354
v 0.073552 0.486295 -0.062500
v 0.078261 0.534957 -0.028959
v 0.089646 0.536307 -0.062500
v 0.060591 0.484758 -0.037236
v 0.051107 0.317204 -0.043863
v 0.030754 0.314792 -0.030219
v -0.106951 0.464897 -0.037236
v -0.081261 0.467941 -0.018744
v -0.119910 0.463360 -0.062500
v -0.135866 0.509573 -0.028959
v 0.078261 0.534957 -0.096041
v 0.060591 0.484758 -0.087764
v 0.045429 0.531064 -0.120594
v -0.052039 0.591084 0.069352
v 0.062441 0.604657 0.038463
v 0.054221 0.603681 0.069352
v -0.052039 0.591084 -0.132574
v 0.054221 0.603681 -0.132574
v -0.029584 0.593747 -0.109963
v 0.031766 0.601019 -0.109963
v 0.001091 0.597384 -0.101685
v 0.054221 0.603681 -0.194354
v -0.052039 0.591084 -0.194354
v 0.031766 0.601019 -0.216966
v -0.029584 0.593747 -0.216966
v 0.001091 0.597384 -0.225243
v -0.161453 0.578115 -0.013431
v -0.039451 0.592578 -0.000299
v -0.156542 0.578698 0.018163
v -0.115276 1.019608 -0.056781
v -0.212426 1.008092 -0.013431
v -0.095335 1.021973 -0.031893
v -0.150022 0.579470 -0.043264
v -0.044364 0.591995 -0.031893
v -0.050883 0.591222 -0.154536
v -0.136599 0.581061 -0.168051
v -0.075598 0.588293 -0.174617
v -0.106973 0.584573 -0.179564
v -0.150022 0.579470 -0.081736
v -0.064305 0.589631 -0.068219
v -0.125308 0.582400 -0.061653
v -0.093933 0.586119 -0.056706
v 0.057492 0.604068 0.035500
v 0.160904 0.616329 0.010892
v 0.144216 0.614350 0.038099
v 0.161850 0.616442 -0.021073
v 0.095825 1.044634 -0.049231
v 0.110879 1.046417 -0.021073
v 0.119778 0.611453 -0.058964
v 0.060073 0.604375 -0.073171
v 0.146796 0.614657 -0.075769
v 0.088036 0.607690 -0.058012
v 0.161850 0.616442 -0.103928
v 0.084510 0.607272 -0.177308
v 0.144216 0.614350 -0.163099
v 0.057492 0.604068 -0.160502
v 0.116254 0.611035 -0.178258
v 0.062441 0.604657 -0.163463
v -0.060259 0.590110 -0.163463
v -0.029584 0.593747 0.091966
v 0.031766 0.601019 0.091966
v 0.001091 0.597384 0.100242
v -0.111230 1.020088 -0.163463
v 0.003250 1.033659 -0.194352
v -0.103012 1.021062 -0.194352
v 0.054221 0.603681 0.007574
v -0.052039 0.591084 0.007574
v 0.031766 0.601019 -0.015039
v -0.029584 0.593747 -0.015039
v 0.001091 0.597384 -0.023315
v -0.156542 0.578698 -0.143163
v -0.093933 0.586119 -0.068294
v -0.144903 1.016096 -0.068294
v -0.075598 0.588293 0.049617
v -0.136599 0.581061 0.043051
v -0.050883 0.591222 0.029536
v -0.106973 0.584573 0.054564
v 0.109933 1.046305 -0.135893
v 0.006521 1.034047 -0.160500
v -0.008532 1.032263 -0.132343
v -0.125308 0.582400 -0.063347
v -0.064305 0.589631 -0.056781
v 0.060073 0.604375 -0.051829
v 0.043384 0.602398 -0.024623
v -0.207512 1.008674 -0.143163
v -0.101854 1.021200 -0.154536
v -0.187570 1.011037 -0.168051
v 0.084510 0.607272 0.052307
v 0.116254 0.611035 0.053258
v 0.119778 0.611453 -0.066036
v 0.146796 0.614657 -0.049231
v 0.088036 0.607690 -0.066988
v -0.155355 0.504923 -0.165506
v 0.102525 0.535492 0.040506
v -0.155355 0.504923 0.040506
v -0.197374 0.806967 -0.165506
v -0.203439 0.795722 0.031307
v -0.203439 0.795722 -0.156308
v 0.131195 -0.394448 -0.088739
v 0.024981 -0.379320 -0.088739
v -0.352227 0.778084 0.031307
v -0.358292 0.766837 -0.165506
v -0.358292 0.766837 0.040508
v -0.381157 0.959714 -0.165506
v -0.371605 0.976309 0.031559
v -0.371605 0.976309 -0.156559
v -0.095031 0.336987 -0.036273
v -0.217778 0.979082 0.040508
v -0.226682 0.993491 0.031559
v 0.092364 0.359201 -0.062500
v 0.131195 -0.394448 -0.036261
v 0.060667 0.318336 -0.062500
v -0.072494 0.302552 -0.081137
v -0.054941 0.304632 -0.094781
v -0.082052 0.301420 -0.062500
v -0.083455 0.338358 -0.083778
v -0.115276 1.019608 -0.068219
v -0.212426 1.008092 -0.111571
v -0.200993 1.009446 -0.081736
v -0.194914 0.786205 -0.165506
v -0.194914 0.786205 0.040508
v 0.051107 0.317204 -0.081137
v 0.030754 0.314792 -0.094781
v -0.072494 0.302552 -0.043863
v -0.054941 0.304632 -0.030219
v -0.060259 0.590110 0.038463
v 0.129702 -0.419688 -0.044123
v 0.128864 -0.433877 -0.062500
v 0.046037 -0.374609 -0.039062
v 0.108256 -0.367235 -0.039062
v 0.046037 -0.374609 -0.085938
v 0.108256 -0.367235 -0.085938
v 0.003250 1.033659 -0.132574
v -0.103012 1.021062 -0.132574
v -0.270200 1.743677 -0.035890
v 0.024981 -0.379320 -0.036262
v 0.160904 0.616329 -0.135893
v 0.043384 0.602398 -0.100379
v 0.042440 0.602285 -0.132343
v 0.065281 1.041013 -0.178258
v -0.019207 1.030997 -0.015038
v -0.161453 0.578115 -0.111571
v -0.019207 1.030997 -0.216966
v -0.095335 1.021973 -0.093107
v -0.009782 1.396167 -0.090251
v -0.036673 1.771358 -0.035890
v -0.009782 1.396167 -0.034748
v 0.027756 -0.376777 -0.062500
v -0.039451 0.592578 -0.124701
v -0.049882 1.027359 -0.101685
v -0.144903 1.016096 -0.056706
v 0.109933 1.046305 0.010892
v 0.093244 1.044327 -0.163099
v 0.009101 1.034352 -0.051829
v 0.037064 1.037667 -0.066988
v -0.187570 1.011037 0.043051
v -0.207512 1.008674 0.018163
v 0.042440 0.602285 0.007342
v -0.126569 1.018268 0.049617
v -0.101854 1.021200 0.029536
v -0.019207 1.030997 -0.109963
v -0.200993 1.009446 -0.043264
v -0.165788 0.576053 -0.165506
v 0.033539 1.037249 0.052307
v 0.006521 1.034047 0.035500
v -0.165788 0.576053 0.040506
v -0.217778 0.979082 -0.165506
v -0.352227 0.778084 -0.156308
v -0.197374 0.806967 0.040508
v -0.360752 0.787599 0.040508
v -0.368965 0.991142 -0.165506
v -0.226682 0.993491 -0.156559
v 0.027138 -0.402887 -0.044123
v -0.010372 3.207356 -0.025411
v 0.038131 3.737769 -0.094260
v 0.110532 3.683333 -0.027756
v 0.110532 3.683333 -0.097245
v -0.051391 3.825348 -0.089607
v -0.051391 3.825348 -0.035392
v 0.124434 -0.365317 -0.076032
v 0.124434 -0.365317 -0.048968
v 0.034696 -0.375954 -0.076032
v -0.068361 0.340149 -0.107928
v -0.103012 1.021062 0.007574
v -0.176279 1.012377 -0.061653
v 0.011469 1.034633 -0.163463
v -0.103012 1.021062 0.069352
v -0.080555 1.023724 0.091966
v -0.090422 1.022556 -0.000299
v -0.049880 1.027359 -0.023315
v -0.157944 1.014551 0.054564
v 0.033539 1.037249 -0.177308
v -0.126569 1.018268 -0.174617
v -0.157944 1.014551 -0.179564
v 0.164104 0.615160 -0.165506
v -0.111230 1.020088 0.038463
v -0.008532 1.032263 0.007342
v -0.007587 1.032373 -0.024623
v 0.068807 1.041431 -0.066036
v -0.049880 1.027359 0.100242
v -0.080555 1.023724 -0.109963
v 0.011469 1.034633 0.038463
v 0.003250 1.033659 0.007574
v 0.009101 1.034352 -0.073171
v -0.007587 1.032373 -0.100378
v 0.037064 1.037667 -0.058012
v 0.131378 -0.364493 -0.062500
v -0.135866 0.509573 -0.096041
v -0.147251 0.508223 -0.062500
v -0.174317 0.612465 0.040506
v 0.102525 0.535492 -0.165506
v -0.019207 1.030997 0.091966
v 0.065281 1.041013 0.053258
v -0.044364 0.591995 -0.093107
v -0.049882 1.027359 -0.225243
v -0.080555 1.023723 -0.216966
v 0.068807 1.041431 -0.058964
v 0.095825 1.044634 -0.075769
v -0.080555 1.023724 -0.015038
v -0.090422 1.022556 -0.124701
v -0.381157 0.959714 0.040508
v -0.360752 0.787599 -0.165506
v -0.184126 1.048369 -0.033498
v -0.270200 1.743677 -0.089110
v -0.184126 1.048369 -0.091502
v -0.364679 2.749279 -0.097444
v -0.364679 2.749279 -0.027556
v -0.381205 3.008877 -0.098792
v -0.387177 3.153705 -0.025457
v -0.387177 3.153705 -0.099543
v -0.106951 0.464897 -0.087764
v -0.375711 3.340292 -0.024502
v -0.344364 3.539459 -0.101507
v -0.361582 3.452899 -0.023931
v -0.344364 3.539459 -0.023494
v 0.034696 -0.375954 -0.048968
v -0.301801 3.686939 -0.094758
v -0.301801 3.686939 -0.030241
v -0.247951 3.816472 -0.036075
v -0.247951 3.816472 -0.088923
v -0.213013 3.890910 -0.085593
v -0.213013 3.890910 -0.039406
v -0.368965 0.991142 0.040508
v -0.221282 1.008650 0.040508
v -0.221282 1.008650 -0.165506
v -0.166454 3.963080 -0.043858
v 0.003250 1.033659 0.069352
v -0.176279 1.012377 -0.063347
v 0.093244 1.044327 0.038099
v 0.110879 1.046417 -0.103928
v 0.021523 1.072747 -0.033498
v 0.021523 1.072747 -0.091502
v 0.022392 -0.351051 -0.033411
v 0.080581 3.589833 -0.023494
v -0.361582 3.452899 -0.101070
v -0.042076 2.906093 -0.026945
v 0.038131 3.737769 -0.030741
v -0.381205 3.008877 -0.026207
v -0.174317 0.612465 -0.165506
v 0.164104 0.615160 0.040508
vn 0.1178 0.9930 -0.0000
vn -0.1324 -0.8082 -0.5738
vn 0.9996 0.0290 -0.0000
vn 0.8000 0.6000 -0.0000
vn 0.9654 -0.2609 -0.0000
vn 0.0006 -0.0052 -1.0000
vn 0.9995 -0.0319 -0.0000
vn 0.9988 0.0494 -0.0000
vn 0.1177 -0.9931 -0.0000
vn 0.1177 -0.9930 -0.0000
vn 0.0338 -0.2855 -0.9578
vn 0.0338 -0.2855 0.9578
vn 0.1176 -0.9931 0.0001
vn 0.1177 -0.9931 0.0001
vn 0.1178 -0.9930 -0.0000
vn 0.1177 -0.9931 -0.0001
vn 0.9090 -0.2925 0.2968
vn 0.5902 -0.3293 0.7370
vn 0.5657 -0.1641 0.8081
vn 0.5626 -0.1627 0.8105
vn 0.5704 -0.1538 0.8068
vn 0.0145 -0.1223 0.9924
vn -0.4806 -0.4642 0.7440
vn -0.7302 -0.5481 0.4079
vn 0.8381 -0.3623 -0.4079
vn 0.5758 -0.3390 -0.7440
vn 0.1177 -0.9930 0.0001
vn 0.1177 -0.9930 -0.0001
vn -0.1177 0.9930 -0.0000
vn 0.8744 0.1037 -0.4740
vn 0.3575 0.0424 -0.9329
vn 0.8801 -0.4747 -0.0000
vn -0.0456 -0.3199 -0.9464
vn -0.8802 0.4746 -0.0000
vn -0.8667 0.4989 -0.0000
vn -0.0593 0.5000 0.8640
vn -0.7905 -0.6125 -0.0000
vn -0.0123 -0.0994 -0.9950
vn -0.0129 -0.0949 -0.9954
vn -0.0120 -0.1014 -0.9948
vn 0.9983 -0.0591 -0.0000
vn 0.8793 -0.1826 -0.4399
vn -0.5812 -0.2250 -0.7820
vn -0.8438 -0.2916 -0.4505
vn -0.8438 -0.2916 -0.4506
vn 0.8793 -0.1826 0.4399
vn 0.7449 0.6672 -0.0000
vn 0.5704 -0.1539 -0.8068
vn 0.5626 -0.1627 -0.8105
vn 0.5657 -0.1641 -0.8081
vn -0.5812 -0.2250 0.7820
vn -0.1379 -0.7809 0.6092
vn 0.0015 -0.0128 0.9999
vn 0.0015 -0.0128 -0.9999
vn -0.0009 -0.0101 0.9999
vn 0.0012 -0.0105 0.9999
vn 0.0012 -0.0081 1.0000
vn -0.0123 -0.0995 0.9950
vn -0.0130 -0.0949 0.9954
vn -0.0132 -0.0929 0.9956
vn 0.4707 0.0558 -0.8805
vn 0.7022 0.0832 -0.7071
vn -0.9265 -0.1098 0.3600
vn 0.9974 0.0715 -0.0000
vn -0.8772 -0.1420 -0.4585
vn -0.8773 -0.1420 -0.4585
vn 0.9265 0.1098 -0.3600
vn -0.2571 -0.0305 0.9659
vn 0.3575 0.0424 0.9329
vn 0.9926 0.1177 0.0298
vn -0.8744 -0.1037 -0.4740
vn 0.8449 0.1002 -0.5255
vn -0.4707 -0.0558 -0.8805
vn -0.7728 -0.0916 0.6280
vn -0.3575 -0.0424 0.9329
vn 0.6236 0.0739 0.7783
vn 0.9265 0.1098 0.3600
vn 0.7022 0.0832 0.7071
vn 0.7021 0.0832 0.7072
vn -0.6236 -0.0739 -0.7782
vn -0.0000 -0.0000 -1.0000
vn -0.5219 -0.0619 0.8508
vn -0.0000 -0.0000 1.0000
vn -0.8850 -0.0790 -0.4588
vn 0.8789 0.1301 0.4588
vn 0.8790 0.1301 0.4588
vn 0.0778 -0.6560 -0.7507
vn 0.8507 0.5257 -0.0000
vn -0.0778 0.6560 -0.7508
vn -0.0778 0.6559 -0.7508
vn 0.0778 -0.6561 0.7506
vn 0.0621 -0.5236 -0.8497
vn -0.0593 0.4999 -0.8641
vn -0.0593 0.4999 -0.8640
vn 0.5750 0.0890 0.8133
vn 0.5749 0.0890 0.8133
vn -0.5798 -0.0479 0.8133
vn -0.5799 -0.0479 0.8133
vn -0.9958 -0.0912 -0.0000
vn 0.9945 -0.1047 -0.0000
vn 0.9767 -0.2148 -0.0000
vn 0.6010 0.7993 -0.0000
vn -0.8773 -0.1420 0.4585
vn 0.7419 0.6705 -0.0000
vn 0.6993 0.7148 -0.0000
vn 0.5517 0.0530 -0.8324
vn 0.0145 -0.1223 -0.9924
vn 0.5517 0.0530 0.8324
vn -0.6030 -0.1012 -0.7913
vn -0.1159 0.0013 -0.9933
vn -0.8449 -0.1002 -0.5255
vn -0.7022 -0.0832 -0.7071
vn -0.6236 -0.0739 0.7782
vn 0.8449 0.1002 0.5255
vn -0.9811 -0.1163 0.1547
vn -0.9811 -0.1163 0.1546
vn 0.9592 0.1137 -0.2588
vn -0.7022 -0.0832 0.7071
vn -0.9592 -0.1137 -0.2588
vn -0.1536 -0.0182 0.9880
vn -0.9811 -0.1163 -0.1547
vn 0.2570 0.0305 -0.9659
vn 0.1536 0.0182 0.9880
vn -0.0295 -0.0035 -0.9996
vn 0.1536 0.0182 -0.9880
vn -0.9592 -0.1137 0.2588
vn -0.9926 -0.1177 -0.0297
vn -0.0295 -0.0035 0.9996
vn 0.5218 0.0619 -0.8508
vn 0.5219 0.0619 -0.8508
vn -0.2570 -0.0305 0.9659
vn 0.7729 0.0916 -0.6279
vn -0.8744 -0.1037 0.4740
vn -0.7021 -0.0832 0.7072
vn 0.9811 0.1163 -0.1547
vn 0.9926 0.1177 -0.0298
vn -0.8449 -0.1002 0.5255
vn -0.4707 -0.0558 0.8805
vn -0.3575 -0.0424 -0.9329
vn 0.8837 0.0915 0.4590
vn 0.8838 0.0915 0.4589
vn -0.8154 -0.4970 -0.2968
vn 0.9523 -0.3051 -0.0000
vn -0.8850 -0.0790 0.4588
vn -0.0080 0.0671 0.9977
vn 0.9736 0.2281 -0.0000
vn 0.2571 0.0305 0.9659
vn -0.5219 -0.0619 -0.8507
vn -0.5219 -0.0619 -0.8508
vn 0.5750 0.0890 -0.8133
vn 0.5749 0.0890 -0.8133
vn -0.0778 0.6561 0.7507
vn 0.8789 0.1301 -0.4588
vn 0.8790 0.1301 -0.4588
vn -0.1536 -0.0182 -0.9880
vn 0.7912 -0.6116 -0.0000
vn -0.9265 -0.1098 -0.3600
vn 0.4707 0.0558 0.8805
vn 0.7729 0.0916 0.6279
vn 0.9592 0.1137 0.2588
vn -0.2570 -0.0305 -0.9659
vn 0.0296 0.0035 -0.9996
vn -0.7728 -0.0916 -0.6280
vn 0.6236 0.0739 -0.7783
vn -0.9926 -0.1177 0.0297
vn 0.5219 0.0619 0.8508
vn 0.8744 0.1037 0.4740
vn 0.2570 0.0305 0.9659
vn 0.0296 0.0035 0.9996
vn 0.9811 0.1163 0.1547
vn 0.1176 -0.9931 -0.0001
vn -0.9930 -0.1177 -0.0000
vn 0.9930 0.1177 -0.0000
vn -0.7448 -0.6673 -0.0000
vn -0.9924 -0.1229 -0.0000
vn -0.9956 -0.0935 -0.0000
vn 0.8838 0.0915 -0.4589
vn -0.9980 -0.0635 -0.0000
vn -0.9992 -0.0412 -0.0000
vn -0.5798 -0.0479 -0.8133
vn -0.5798 -0.0479 -0.8134
vn -0.9981 0.0613 -0.0000
vn -0.9808 0.1951 -0.0000
vn -0.6470 -0.1060 0.7551
vn -0.9922 0.1245 -0.0000
vn -0.9608 0.2773 -0.0000
vn -0.9234 0.3839 -0.0000
vn -0.9052 0.4249 -0.0000
vn 0.0621 -0.5237 0.8497
vn 0.0621 -0.5237 0.8496
vn -0.4969 -0.4581 -0.7371
vn 0.9420 -0.3356 -0.0000
vn -0.8403 0.5421 -0.0000
vn -0.8438 -0.2916 0.4506
vn -0.8438 -0.2916 0.4505
vn -0.1177 0.9930 -0.0001
vn -0.1177 0.9931 0.0003
vn -0.1177 0.9930 0.0001
vn -0.1178 0.9930 0.0001
vn -0.9845 0.1752 -0.0000
vn -0.1177 0.9931 -0.0003
vn -0.1178 0.9930 -0.0001
vn -0.0482 -0.2944 0.9545
vn 0.9953 0.0963 -0.0000
vn -0.1379 -0.7809 -0.6092
vn -0.0005 0.0038 -1.0000
vn -0.0002 0.0037 -1.0000
vn -0.0005 0.0034 -1.0000
vn -0.0009 -0.0101 -0.9999
vn -0.0025 -0.0075 -1.0000
vn 0.0012 -0.0081 -1.0000
vn 0.0012 -0.0105 -0.9999
vn 0.0111 0.0425 -0.9990
vn -0.0056 0.0473 -0.9989
vn -0.0177 -0.0002 -0.9998
vn -0.0079 0.0666 -0.9977
vn -0.0003 0.0028 -1.0000
vn 0.8381 -0.3623 0.4079
vn 0.5758 -0.3390 0.7440
vn 0.5729 -0.1551 0.8048
vn -0.4969 -0.4581 0.7371
vn -0.8154 -0.4970 0.2968
vn 0.9090 -0.2925 -0.2968
vn 0.5902 -0.3293 -0.7370
vn -0.0482 -0.2944 -0.9545
vn -0.0132 -0.0929 -0.9956
vn 0.9983 -0.0590 -0.0000
vn -0.5678 -0.2321 -0.7898
vn -0.8438 -0.2915 -0.4505
vn 0.5729 -0.1551 -0.8049
vn -0.5678 -0.2321 0.7897
vn -0.1324 -0.8082 0.5738
vn -0.0056 0.0473 0.9989
vn -0.0177 -0.0002 0.9998
vn -0.0079 0.0666 0.9977
vn 0.0006 -0.0052 1.0000
vn 0.0111 0.0425 0.9990
vn -0.0025 -0.0075 1.0000
vn -0.0002 0.0037 1.0000
vn -0.0005 0.0034 1.0000
vn -0.0005 0.0038 1.0000
vn -0.0003 0.0028 1.0000
vn -0.0120 -0.1014 0.9948
vn -0.5798 -0.0479 0.8134
vn -0.9958 -0.0913 -0.0000
vn -0.8772 -0.1420 0.4585
vn 0.5175 0.0477 -0.8544
vn 0.5175 0.0477 0.8544
vn -0.6470 -0.1060 -0.7551
vn 0.1124 0.0284 -0.9933
vn -0.0080 0.0671 -0.9977
vn -0.9926 -0.1177 -0.0298
vn -0.7302 -0.5482 -0.4079
vn 0.1124 0.0284 0.9933
vn -0.1159 0.0013 0.9933
vn 0.8837 0.0915 -0.4590
vn -0.6030 -0.1012 0.7913
vn -0.4806 -0.4642 -0.7440
vn -0.8438 -0.2915 0.4505
vn -0.0456 -0.3198 0.9464
vt 0.831637 0.106789
vt 0.829011 0.117708
vt 0.478488 0.431388
vt 0.483413 0.399465
vt 0.487647 0.399578
vt 0.330240 0.527493
vt 0.417509 0.507577
vt 0.417509 0.528412
vt 0.931061 0.512057
vt 0.909980 0.525349
vt 0.909980 0.510639
vt 0.803746 0.505571
vt 0.762203 0.530202
vt 0.762203 0.505786
vt 0.686184 0.743283
vt 0.741928 0.632716
vt 0.762203 0.769704
vt 0.592088 0.506670
vt 0.232985 0.509519
vt 0.330240 0.508495
vt 0.827441 0.117267
vt 0.825898 0.117267
vt 0.824355 0.117267
vt 0.816528 0.113361
vt 0.819446 0.113361
vt 0.828983 0.117267
vt 0.830526 0.117267
vt 0.832069 0.117267
vt 0.833612 0.117267
vt 0.810694 0.113361
vt 0.825281 0.113361
vt 0.839783 0.117267
vt 0.841326 0.117267
vt 0.838241 0.117267
vt 0.836698 0.117267
vt 0.835155 0.117267
vt 0.813611 0.113361
vt 0.812152 0.113361
vt 0.383136 0.424228
vt 0.371400 0.421461
vt 0.371400 0.427988
vt 0.383136 0.392849
vt 0.823822 0.113361
vt 0.822363 0.113361
vt 0.815070 0.113361
vt 0.172033 0.454880
vt 0.181871 0.491597
vt 0.172033 0.488961
vt 0.164831 0.462082
vt 0.164831 0.481758
vt 0.162194 0.471920
vt 0.191709 0.488961
vt 0.191709 0.454880
vt 0.198911 0.481758
vt 0.198911 0.462082
vt 0.201548 0.471920
vt 0.181871 0.452244
vt 0.164830 0.481758
vt 0.010608 0.490620
vt 0.148515 0.487984
vt 0.148515 0.490620
vt 0.148515 0.480782
vt 0.010608 0.470944
vt 0.148515 0.470944
vt 0.463555 0.243370
vt 0.400727 0.322566
vt 0.400727 0.243370
vt 0.830156 0.115573
vt 0.829879 0.115379
vt 0.486416 0.432806
vt 0.495182 0.399779
vt 0.829879 0.111416
vt 0.829603 0.111222
vt 0.834740 0.111222
vt 0.835146 0.111524
vt 0.834740 0.115573
vt 0.835146 0.115384
vt 0.296400 0.326150
vt 0.296400 0.263322
vt 0.495926 0.434508
vt 0.504221 0.400020
vt 0.826000 0.117169
vt 0.383136 0.431479
vt 0.383136 0.434980
vt 0.371400 0.431055
vt 0.371400 0.393976
vt 0.371400 0.388346
vt 0.371400 0.385280
vt 0.383136 0.382721
vt 0.383136 0.386221
vt 0.829603 0.115573
vt 0.474032 0.430590
vt 0.016367 0.398323
vt 0.016367 0.418278
vt 0.346035 0.423997
vt 0.232985 0.606224
vt 0.330240 0.687799
vt 0.417509 0.695586
vt 0.010608 0.480782
vt 0.010608 0.487984
vt 0.010608 0.451267
vt 0.148515 0.453903
vt 0.148515 0.451267
vt 0.113308 0.509155
vt 0.232985 0.526469
vt 0.113308 0.526833
vt 0.016367 0.392459
vt 0.346035 0.387816
vt 0.346035 0.390883
vt 0.010608 0.461105
vt 0.010608 0.453903
vt 0.148515 0.461105
vt 0.051206 0.249244
vt 0.028317 0.249877
vt 0.118766 0.195512
vt 0.411039 0.379972
vt 0.411039 0.375657
vt 0.451942 0.376842
vt 0.451942 0.438891
vt 0.451942 0.434734
vt 0.411039 0.435760
vt 0.125425 0.247912
vt 0.180628 0.195512
vt 0.180628 0.247912
vt 0.830156 0.111222
vt 0.835527 0.111640
vt 0.451942 0.426494
vt 0.411039 0.427206
vt 0.451942 0.380998
vt 0.411039 0.388526
vt 0.828776 0.106713
vt 0.826390 0.106649
vt 0.686184 0.529807
vt 0.686184 0.506181
vt 0.852128 0.507879
vt 0.832196 0.529060
vt 0.832196 0.506928
vt 0.883184 0.509360
vt 0.883184 0.526628
vt 0.346035 0.430525
vt 0.016367 0.423468
vt 0.016367 0.394685
vt 0.346035 0.396512
vt 0.451942 0.389238
vt 0.411039 0.407866
vt 0.823993 0.115684
vt 0.823993 0.124469
vt 0.016367 0.425694
vt 0.346035 0.433591
vt 0.820904 0.113361
vt 0.824976 0.115573
vt 0.411039 0.440075
vt 0.463555 0.344076
vt 0.463555 0.322566
vt 0.355633 0.263322
vt 0.302776 0.326150
vt 0.302776 0.263322
vt 0.009841 0.607378
vt 0.554585 0.614046
vt 0.637312 0.618553
vt 0.683343 0.622094
vt 0.803746 0.650099
vt 0.777015 0.641407
vt 0.848797 0.669090
vt 0.887746 0.690979
vt 0.909980 0.704821
vt 0.835527 0.115573
vt 0.931061 0.722252
vt 0.164830 0.462082
vt 0.842869 0.117267
vt 0.009841 0.673336
vt 0.009841 0.527231
vt 0.009841 0.508757
vt 0.931061 0.523931
vt 0.803746 0.530418
vt 0.113308 0.675561
vt 0.592087 0.721961
vt 0.883184 0.753481
vt 0.803746 0.786391
vt 0.909980 0.734476
vt 0.232985 0.681124
vt 0.852128 0.778511
vt 0.832196 0.799370
vt 0.592088 0.529318
vt 0.823490 0.116720
vt 0.822080 0.116468
vt 0.118766 0.247912
vt 0.063042 0.247912
vt 0.051206 0.355051
vt 0.028317 0.332587
vt 0.125425 0.195512
vt 0.825050 0.106613
vt 0.852128 0.528109
vt 0.400727 0.344076
vt 0.355633 0.326150
s 1
usemtl none.004
f 1/1/1 2/2/1 3/2/1
f 4/3/2 5/4/2 6/5/2
f 7/6/3 8/7/3 9/8/3
f 10/9/4 11/10/4 12/11/4
f 13/12/5 14/13/5 15/14/5
f 16/15/6 17/16/6 15/17/6
f 18/18/7 9/8/7 8/7/7
f 7/6/8 19/19/8 20/20/8
f 21/21/9 23/22/10 22/22/10
f 24/23/10 22/22/10 23/22/10
f 25/24/11 27/25/11 26/25/11
f 23/22/10 21/21/9 28/21/10
f 29/26/10 31/27/9 30/27/10
f 32/28/10 30/27/10 31/27/9
f 31/27/9 33/28/10 32/28/10
f 34/29/10 32/28/10 33/28/10
f 35/30/12 37/30/12 36/31/12
f 38/32/13 40/33/14 39/33/14
f 41/34/15 43/34/15 42/35/9
f 34/29/10 33/28/10 44/36/16
f 45/37/17 47/37/17 46/38/17
f 48/38/18 46/38/18 37/30/18
f 22/39/19 50/40/20 49/41/21
f 50/40/22 22/39/22 40/42/22
f 51/43/23 52/31/23 36/31/23
f 53/44/24 51/43/24 54/43/24
f 45/37/25 56/45/25 55/45/25
f 56/45/26 25/24/26 57/24/26
f 58/46/10 59/47/10 60/48/10
f 61/46/10 62/48/10 63/49/27
f 64/50/10 63/49/27 62/48/10
f 63/49/27 64/50/10 65/51/27
f 66/52/10 67/53/10 68/54/10
f 69/55/28 68/54/10 67/53/10
f 68/54/10 69/55/28 70/56/28
f 71/57/10 72/47/10 73/53/10
f 74/58/29 75/57/29 76/48/29
f 77/46/10 78/48/10 71/57/10
f 79/52/10 80/55/10 81/54/10
f 81/54/10 80/55/10 82/56/10
f 83/46/10 84/50/10 85/49/10
f 85/49/10 84/50/10 86/51/10
f 87/53/10 88/52/10 89/54/10
f 90/59/30 91/60/30 92/61/30
f 93/50/10 94/49/10 95/48/10
f 94/49/10 93/50/10 96/51/10
f 94/49/10 97/47/10 95/48/10
f 98/55/10 99/54/10 100/53/10
f 99/54/10 98/55/10 101/56/10
f 67/53/10 102/47/10 103/57/10
f 58/46/10 60/48/10 104/49/27
f 105/50/10 104/49/27 60/48/10
f 104/49/27 105/50/10 106/51/27
f 107/57/29 108/52/29 109/53/29
f 110/52/10 111/53/10 112/54/10
f 113/55/28 112/54/10 111/53/10
f 112/54/10 113/55/28 114/56/28
f 79/52/10 115/53/10 80/55/10
f 74/62/31 116/63/31 117/64/31
f 118/54/10 119/55/10 120/52/10
f 119/55/10 118/54/10 121/56/10
f 122/52/29 123/53/29 124/57/29
f 125/49/10 126/50/10 77/46/10
f 126/50/10 125/49/10 116/51/10
f 127/49/10 90/47/10 128/46/10
f 129/53/29 130/52/29 131/55/29
f 87/53/10 89/54/10 132/55/10
f 132/55/10 89/54/10 133/56/10
f 127/49/10 134/50/10 135/48/10
f 134/50/10 127/49/10 136/51/10
f 137/65/10 138/66/10 139/67/10
f 140/68/32 141/69/32 142/69/32
f 143/70/33 6/5/33 144/71/33
f 145/72/34 146/73/34 147/73/34
f 148/74/35 149/75/35 150/75/35
f 41/34/15 38/32/13 151/32/9
f 149/75/36 152/76/36 153/77/36
f 29/26/10 154/26/10 28/21/10
f 146/78/37 139/67/37 147/79/37
f 3/80/38 144/71/39 1/81/40
f 2/2/41 155/82/41 143/82/41
f 31/83/42 29/84/42 156/85/42
f 44/42/43 158/86/43 157/87/43
f 159/88/44 41/89/45 160/90/45
f 161/58/29 162/57/29 163/46/29
f 156/85/46 29/84/46 21/83/46
f 164/91/47 141/69/47 165/91/47
f 166/41/48 167/40/49 33/39/50
f 168/87/51 169/86/51 40/42/51
f 111/53/10 59/47/10 170/57/10
f 171/3/52 5/4/52 172/92/52
f 173/93/53 174/94/53 50/95/53
f 167/95/54 176/94/54 175/93/54
f 177/48/29 107/57/29 178/46/29
f 179/96/55 7/97/56 9/98/57
f 61/46/10 102/47/10 62/48/10
f 2/80/58 180/71/59 155/70/60
f 181/52/10 182/46/10 183/57/10
f 184/64/61 99/99/61 101/63/61
f 185/62/62 110/100/62 112/99/62
f 186/101/63 163/102/63 162/103/63
f 187/62/62 66/100/62 68/99/62
f 188/48/29 129/53/29 162/57/29
f 189/104/64 190/105/64 191/106/64
f 192/107/65 159/108/66 157/109/66
f 130/60/67 193/59/67 79/100/67
f 194/64/68 63/110/68 65/63/68
f 86/63/69 161/62/69 195/64/69
f 90/59/70 196/60/70 88/100/70
f 183/101/71 123/102/71 100/111/71
f 122/60/72 99/99/72 197/62/72
f 136/63/73 198/112/73 199/64/73
f 73/111/74 200/112/74 201/102/74
f 121/63/75 200/112/75 119/110/75
f 128/46/10 88/52/10 202/57/10
f 120/100/76 203/62/76 118/99/76
f 72/59/77 204/60/77 120/100/77
f 62/100/78 205/62/79 64/99/78
f 206/102/80 125/110/80 77/111/80
f 207/113/81 137/114/81 146/115/81
f 87/111/82 208/112/82 209/102/82
f 210/113/83 147/115/83 139/114/83
f 42/116/84 43/117/84 53/118/84
f 45/119/85 48/120/85 28/121/86
f 140/122/81 148/123/81 211/124/81
f 212/72/87 140/68/87 142/69/87
f 211/76/88 153/77/88 152/76/88
f 164/91/89 212/72/90 142/69/89
f 145/72/91 213/68/91 214/125/91
f 215/126/92 216/77/92 150/75/92
f 211/76/93 150/75/94 216/77/93
f 48/120/95 35/127/96 23/128/95
f 51/129/97 151/116/98 39/130/98
f 144/131/99 6/132/99 217/132/99
f 218/133/100 18/18/100 16/134/100
f 218/133/101 15/14/101 14/13/101
f 219/135/102 220/136/102 221/137/102
f 168/109/103 159/108/103 192/107/103
f 11/10/104 222/138/104 12/11/104
f 223/139/105 219/135/105 222/138/105
f 167/95/106 166/140/106 224/141/106
f 167/40/107 158/86/107 44/42/107
f 225/141/108 49/140/108 50/95/108
f 226/142/109 157/109/109 158/143/109
f 27/144/110 34/145/110 227/130/110
f 128/111/111 198/112/111 127/110/111
f 109/102/112 69/110/112 67/111/112
f 228/102/112 113/110/112 111/111/112
f 163/102/113 85/110/113 229/112/113
f 196/60/114 89/99/114 88/100/114
f 201/102/115 71/101/115 73/111/116
f 230/61/117 66/100/117 108/60/117
f 231/102/118 104/110/118 232/112/118
f 75/57/29 233/47/29 76/48/29
f 103/101/119 109/102/119 67/111/119
f 195/64/120 85/110/120 86/63/120
f 186/101/121 129/102/121 115/111/121
f 185/62/122 114/63/122 234/64/122
f 121/63/123 203/62/123 235/64/123
f 236/112/124 101/63/124 98/110/124
f 237/62/125 82/63/125 238/64/125
f 210/146/29 239/147/29 207/146/29
f 170/101/126 231/102/126 240/103/126
f 241/103/127 128/111/127 202/101/127
f 133/63/128 208/112/128 132/110/128
f 242/46/29 196/52/29 92/47/29
f 135/100/129 243/62/130 91/60/130
f 232/112/131 106/63/131 244/64/131
f 78/100/132 74/62/132 76/60/132
f 209/102/133 202/101/133 87/111/133
f 178/102/134 63/110/118 245/112/134
f 246/61/117 110/100/117 247/60/117
f 233/61/135 78/100/135 76/60/135
f 122/60/136 97/59/136 181/100/136
f 182/111/137 248/112/137 249/102/137
f 248/112/138 96/63/138 250/64/138
f 131/112/139 82/63/139 80/110/139
f 251/148/140 156/149/141 49/140/141
f 53/44/142 253/44/142 252/150/142
f 220/136/143 13/12/143 221/137/143
f 151/116/144 51/129/144 53/118/144
f 35/127/145 52/144/145 24/145/145
f 207/146/146 254/151/146 210/146/146
f 65/63/147 205/62/147 194/64/147
f 99/54/10 183/57/10 100/53/10
f 236/112/148 100/111/149 123/102/148
f 32/128/150 25/127/151 56/120/151
f 145/72/152 165/91/152 141/69/152
f 45/119/153 154/152/154 30/121/154
f 125/110/155 117/64/155 116/63/155
f 239/153/156 138/66/156 255/154/156
f 71/101/157 206/102/157 77/111/157
f 60/100/78 256/62/78 105/99/78
f 89/99/158 257/64/158 133/63/158
f 258/100/159 161/62/159 84/99/159
f 246/61/160 60/100/160 59/59/160
f 259/64/161 69/110/161 260/112/161
f 134/99/162 199/64/162 243/62/162
f 131/112/163 115/111/163 129/102/163
f 258/48/10 115/53/10 193/47/10
f 237/62/164 79/100/164 81/99/164
f 183/101/165 249/102/165 124/103/165
f 95/100/166 261/62/166 93/99/166
f 97/59/167 262/60/167 95/100/167
f 103/101/126 178/102/126 107/103/126
f 170/101/119 228/102/119 111/111/119
f 106/63/168 256/62/168 244/64/168
f 230/61/160 62/100/160 102/59/160
f 234/64/161 113/110/161 263/112/161
f 187/62/122 70/63/122 259/64/122
f 93/99/169 250/64/169 96/63/169
f 264/61/170 258/100/170 193/59/170
f 227/36/16 44/36/16 160/35/171
f 265/155/172 266/156/172 214/157/172
f 211/76/173 213/68/173 140/68/173
f 265/123/83 213/122/83 152/124/83
f 266/125/174 145/72/174 214/125/174
f 267/158/175 268/96/175 269/158/175
f 270/159/176 179/96/176 271/159/176
f 166/140/177 156/149/177 251/148/177
f 271/159/178 272/160/178 270/159/178
f 272/160/179 273/161/179 274/161/179
f 227/130/180 42/116/180 275/129/181
f 17/16/182 273/161/182 276/16/182
f 277/162/183 278/163/183 279/162/183
f 280/142/184 173/93/184 169/143/184
f 278/163/185 17/16/185 276/16/185
f 281/164/186 279/162/186 282/164/186
f 281/164/187 283/165/187 284/165/187
f 254/151/173 164/91/173 165/91/173
f 285/166/188 283/165/188 286/166/188
f 287/126/189 153/77/190 288/167/190
f 275/150/191 252/150/191 26/25/191
f 153/77/192 289/167/192 288/167/192
f 285/166/193 290/168/193 10/168/193
f 38/90/194 41/89/194 159/88/195
f 260/55/29 187/54/29 259/56/29
f 187/54/29 260/55/29 108/52/29
f 109/53/29 108/52/29 260/55/29
f 240/57/29 247/52/29 228/53/29
f 291/48/29 240/57/29 231/46/29
f 177/48/29 178/46/29 245/169/29
f 177/48/29 245/169/29 205/58/29
f 205/58/29 245/169/29 194/51/29
f 131/55/29 237/54/196 238/56/197
f 237/54/196 131/55/29 130/52/29
f 204/52/29 201/53/29 200/55/29
f 120/52/10 73/53/10 72/47/10
f 161/58/29 163/46/29 229/169/29
f 161/58/29 229/169/29 195/51/198
f 209/53/29 196/52/29 241/57/29
f 123/53/29 197/54/29 236/55/196
f 236/55/196 197/54/29 184/56/199
f 262/48/29 248/169/29 261/58/29
f 261/58/29 248/169/29 250/51/199
f 263/55/29 185/54/29 234/56/196
f 263/55/29 247/52/29 185/54/29
f 228/53/29 247/52/29 263/55/29
f 291/48/29 231/46/29 232/169/29
f 291/48/29 232/169/29 256/58/29
f 256/58/29 232/169/29 244/51/198
f 84/50/10 186/57/10 258/48/10
f 215/126/200 149/75/200 287/126/200
f 204/52/29 200/55/29 203/54/198
f 203/54/198 200/55/29 235/56/201
f 206/46/29 74/58/29 292/169/29
f 292/169/29 74/58/29 117/51/196
f 249/46/29 122/52/29 124/57/29
f 91/48/29 242/46/29 92/47/29
f 208/55/198 293/54/29 209/53/29
f 293/54/29 208/55/198 257/56/202
f 249/46/29 262/48/29 294/47/29
f 198/169/29 91/48/29 243/58/29
f 198/169/29 243/58/29 199/51/202
f 155/70/203 217/5/203 171/3/203
f 24/170/10 39/33/14 40/33/14
f 287/126/29 289/167/29 215/126/29
f 295/171/10 269/158/10 296/171/10
f 189/104/204 295/172/204 296/173/204
f 1/1/1 297/1/1 2/2/1
f 4/3/205 172/92/205 5/4/205
f 7/6/3 20/20/3 8/7/3
f 10/9/4 290/174/4 11/10/4
f 13/12/5 298/175/5 14/13/5
f 296/171/206 269/158/207 189/176/208
f 269/158/207 268/96/209 189/176/208
f 268/96/209 270/159/210 8/98/211
f 270/159/210 272/160/6 18/177/6
f 268/96/209 8/98/211 20/97/212
f 272/160/6 274/161/6 16/15/6
f 274/161/6 17/16/6 16/15/6
f 17/16/6 299/163/6 15/17/6
f 299/163/6 277/162/6 15/17/6
f 277/162/213 281/164/213 15/17/213
f 281/164/214 284/165/214 222/178/214
f 15/17/215 281/164/215 13/179/215
f 284/165/214 285/166/214 12/180/214
f 285/166/216 10/168/216 12/180/216
f 19/181/217 189/176/208 268/96/209
f 8/98/211 270/159/210 18/177/6
f 284/165/214 12/180/214 222/178/214
f 219/182/214 221/183/214 13/179/214
f 222/178/214 219/182/214 281/164/214
f 19/181/217 268/96/209 20/97/212
f 219/182/214 13/179/214 281/164/214
f 18/177/6 272/160/6 16/15/6
f 18/18/7 300/184/7 9/8/7
f 7/6/8 190/105/8 19/19/8
f 25/24/11 26/25/11 57/24/11
f 29/26/10 30/27/10 154/26/10
f 35/30/12 36/31/12 52/31/12
f 38/32/13 39/33/14 151/32/9
f 41/34/15 42/35/9 160/35/171
f 34/29/10 44/36/16 227/36/16
f 45/37/218 46/38/218 48/38/218
f 48/38/219 37/30/219 35/30/219
f 22/39/19 49/41/21 21/83/220
f 50/40/22 40/42/22 169/86/22
f 51/43/221 36/31/221 54/43/221
f 53/44/222 54/43/222 253/44/222
f 45/37/223 55/45/223 47/37/223
f 56/45/224 57/24/224 55/45/224
f 58/46/10 170/57/10 59/47/10
f 71/57/10 78/48/10 72/47/10
f 74/58/29 206/46/29 75/57/29
f 77/46/10 126/50/10 78/48/10
f 87/53/10 202/57/10 88/52/10
f 90/59/30 135/100/30 91/60/30
f 94/49/10 182/46/10 97/47/10
f 67/53/10 66/52/10 102/47/10
f 107/57/29 230/47/29 108/52/29
f 79/52/10 193/47/10 115/53/10
f 74/62/31 126/99/31 116/63/31
f 122/52/29 197/54/29 123/53/29
f 127/49/10 135/48/10 90/47/10
f 129/53/29 264/47/29 130/52/29
f 137/65/10 255/154/10 138/66/10
f 140/68/32 213/68/32 141/69/32
f 143/70/225 4/3/225 6/5/225
f 145/72/34 212/72/34 146/73/34
f 148/74/35 265/74/35 149/75/35
f 41/34/15 151/32/9 43/34/15
f 149/75/36 265/74/36 152/76/36
f 29/26/10 28/21/10 21/21/9
f 146/78/37 137/65/37 139/67/37
f 3/80/38 143/70/226 144/71/39
f 155/82/41 171/185/227 4/185/227
f 171/185/227 172/186/227 4/185/227
f 4/185/227 143/82/41 155/82/41
f 143/82/41 3/2/41 2/2/41
f 31/83/42 156/85/42 166/41/42
f 44/42/228 157/87/228 160/90/228
f 159/88/44 160/90/45 157/87/229
f 161/58/29 188/48/29 162/57/29
f 156/85/46 21/83/46 49/41/46
f 164/91/47 142/69/47 141/69/47
f 166/41/48 33/39/50 31/83/230
f 168/87/231 40/42/231 38/90/231
f 111/53/10 110/52/10 59/47/10
f 171/3/232 217/5/232 5/4/232
f 173/93/53 50/95/53 169/143/53
f 167/95/54 175/93/54 158/143/54
f 177/48/29 230/47/29 107/57/29
f 298/179/233 220/183/233 301/182/233
f 298/179/233 301/182/233 282/164/233
f 301/182/233 223/178/233 282/164/233
f 14/17/234 298/179/234 282/164/234
f 11/180/235 290/168/235 286/166/235
f 223/178/233 11/180/233 283/165/233
f 218/15/236 14/17/236 276/16/236
f 223/178/233 283/165/233 282/164/233
f 11/180/233 286/166/233 283/165/233
f 282/164/237 279/162/237 14/17/237
f 279/162/236 278/163/236 14/17/236
f 278/163/236 276/16/236 14/17/236
f 276/16/236 273/161/236 218/15/236
f 273/161/236 302/160/236 218/15/236
f 302/160/236 271/159/238 300/177/236
f 271/159/238 179/96/55 9/98/57
f 300/177/236 271/159/238 9/98/57
f 179/96/55 267/158/239 191/176/240
f 267/158/239 295/171/241 191/176/240
f 300/177/236 218/15/236 302/160/236
f 179/96/55 191/176/240 190/181/242
f 179/96/55 190/181/242 7/97/56
f 61/46/10 103/57/10 102/47/10
f 2/80/58 297/81/243 180/71/59
f 181/52/10 97/47/10 182/46/10
f 184/64/61 197/62/61 99/99/61
f 185/62/62 247/60/62 110/100/62
f 186/101/63 83/111/63 163/102/63
f 187/62/62 108/60/62 66/100/62
f 188/48/29 264/47/29 129/53/29
f 189/104/64 19/19/64 190/105/64
f 192/107/65 157/109/66 226/142/65
f 130/60/67 264/61/67 193/59/67
f 194/64/68 245/112/68 63/110/68
f 86/63/69 84/99/69 161/62/69
f 90/59/70 92/61/70 196/60/70
f 183/101/71 124/103/71 123/102/71
f 122/60/72 181/100/72 99/99/72
f 136/63/73 127/110/73 198/112/73
f 73/111/74 119/110/74 200/112/74
f 121/63/75 235/64/75 200/112/75
f 128/46/10 90/47/10 88/52/10
f 120/100/76 204/60/76 203/62/76
f 72/59/77 233/61/77 204/60/77
f 62/100/78 177/60/79 205/62/79
f 206/102/80 292/112/80 125/110/80
f 146/115/81 164/187/81 303/188/81
f 207/113/81 239/189/81 255/190/81
f 146/115/81 303/188/81 207/113/81
f 207/113/81 255/190/81 137/114/81
f 87/111/82 132/110/82 208/112/82
f 254/188/83 165/187/83 147/115/83
f 139/114/83 138/190/83 210/113/83
f 138/190/83 304/189/83 210/113/83
f 210/113/83 254/188/83 147/115/83
f 42/116/84 53/118/84 275/129/84
f 45/119/85 28/121/86 154/152/86
f 140/122/81 266/191/81 148/123/81
f 212/72/87 266/125/87 140/68/87
f 211/76/88 216/77/88 153/77/88
f 164/91/89 146/73/90 212/72/90
f 145/72/91 141/69/91 213/68/91
f 215/126/92 289/167/92 216/77/92
f 211/76/93 148/74/94 150/75/94
f 48/120/95 23/128/95 28/121/95
f 51/129/97 39/130/98 52/144/244
f 6/132/99 5/192/245 217/132/99
f 217/132/99 180/131/99 144/131/99
f 180/131/99 297/1/99 144/131/99
f 297/1/99 1/1/99 144/131/99
f 218/133/100 300/184/100 18/18/100
f 218/133/101 16/134/101 15/14/101
f 219/135/102 301/193/102 220/136/102
f 168/109/246 192/107/246 280/142/246
f 11/10/104 223/139/104 222/138/104
f 223/139/105 301/193/105 219/135/105
f 167/95/247 224/141/247 176/94/247
f 167/40/107 44/42/107 33/39/107
f 225/141/248 50/95/248 174/94/248
f 226/142/249 158/143/249 175/93/249
f 32/128/250 34/145/250 25/127/250
f 25/127/251 34/145/251 27/144/251
f 128/111/111 242/102/111 198/112/111
f 109/102/112 260/112/112 69/110/112
f 228/102/112 263/112/112 113/110/112
f 163/102/113 83/111/113 85/110/113
f 196/60/114 293/62/114 89/99/114
f 201/102/115 75/103/115 71/101/115
f 230/61/117 102/59/117 66/100/117
f 231/102/118 58/111/118 104/110/118
f 75/57/29 201/53/29 233/47/29
f 103/101/119 107/103/119 109/102/119
f 195/64/120 229/112/120 85/110/120
f 186/101/121 162/103/121 129/102/121
f 185/62/122 112/99/122 114/63/122
f 121/63/123 118/99/123 203/62/123
f 236/112/124 184/64/124 101/63/124
f 237/62/125 81/99/125 82/63/125
f 210/146/29 304/147/29 239/147/29
f 170/101/126 58/111/126 231/102/126
f 241/103/127 242/102/252 128/111/127
f 133/63/128 257/64/128 208/112/128
f 242/46/29 241/57/29 196/52/29
f 135/100/129 134/99/129 243/62/130
f 232/112/131 104/110/131 106/63/131
f 78/100/132 126/99/132 74/62/132
f 209/102/133 241/103/133 202/101/133
f 178/102/134 61/111/118 63/110/118
f 246/61/117 59/59/117 110/100/117
f 233/61/135 72/59/135 78/100/135
f 122/60/136 294/61/136 97/59/136
f 182/111/137 94/110/137 248/112/137
f 248/112/138 94/110/138 96/63/138
f 131/112/139 238/64/139 82/63/139
f 251/148/140 49/140/141 225/141/140
f 53/44/253 252/150/253 275/150/253
f 220/136/143 298/175/143 13/12/143
f 151/116/144 53/118/144 43/117/144
f 23/128/254 35/127/254 24/145/254
f 24/145/255 52/144/255 39/130/255
f 207/146/146 303/151/146 254/151/146
f 65/63/147 64/99/147 205/62/147
f 99/54/10 181/52/10 183/57/10
f 236/112/148 98/110/149 100/111/149
f 32/128/150 56/120/151 30/121/150
f 145/72/152 147/73/152 165/91/152
f 45/119/153 30/121/154 56/120/153
f 125/110/155 292/112/155 117/64/155
f 239/153/156 304/194/156 138/66/156
f 71/101/157 75/103/157 206/102/157
f 60/100/78 291/60/78 256/62/78
f 89/99/158 293/62/158 257/64/158
f 258/100/159 188/60/159 161/62/159
f 246/61/160 291/60/160 60/100/160
f 259/64/161 70/63/161 69/110/161
f 134/99/162 136/63/162 199/64/162
f 131/112/163 80/110/163 115/111/163
f 258/48/10 186/57/10 115/53/10
f 237/62/164 130/60/164 79/100/164
f 183/101/165 182/111/165 249/102/165
f 95/100/166 262/60/166 261/62/166
f 97/59/167 294/61/167 262/60/167
f 103/101/126 61/111/126 178/102/126
f 170/101/119 240/103/119 228/102/119
f 106/63/168 105/99/168 256/62/168
f 230/61/160 177/60/160 62/100/160
f 234/64/161 114/63/161 113/110/161
f 187/62/122 68/99/122 70/63/122
f 93/99/169 261/62/169 250/64/169
f 264/61/170 188/60/170 258/100/170
f 227/36/16 160/35/171 42/35/9
f 265/155/172 148/195/172 266/156/172
f 211/76/173 152/76/173 213/68/173
f 265/123/83 214/191/83 213/122/83
f 266/125/174 212/72/174 145/72/174
f 267/158/175 179/96/175 268/96/175
f 270/159/176 268/96/176 179/96/176
f 166/140/256 251/148/256 224/141/256
f 271/159/178 302/160/178 272/160/178
f 272/160/179 302/160/179 273/161/179
f 227/130/180 275/129/181 27/144/181
f 17/16/182 274/161/182 273/161/182
f 277/162/183 299/163/183 278/163/183
f 280/142/257 169/143/257 168/109/257
f 278/163/185 299/163/185 17/16/185
f 281/164/186 277/162/186 279/162/186
f 281/164/187 282/164/187 283/165/187
f 254/151/173 303/151/173 164/91/173
f 285/166/188 284/165/188 283/165/188
f 287/126/189 149/75/189 153/77/190
f 275/150/258 26/25/258 27/25/258
f 153/77/192 216/77/192 289/167/192
f 285/166/193 286/166/193 290/168/193
f 38/90/194 159/88/195 168/87/259
f 240/57/29 246/47/29 247/52/29
f 291/48/29 246/47/29 240/57/29
f 204/52/29 233/47/29 201/53/29
f 120/52/10 119/55/10 73/53/10
f 209/53/29 293/54/29 196/52/29
f 84/50/10 83/46/10 186/57/10
f 215/126/200 150/75/200 149/75/200
f 249/46/29 294/47/29 122/52/29
f 91/48/29 198/169/29 242/46/29
f 249/46/29 248/169/29 262/48/29
f 155/70/260 180/71/260 217/5/260
f 24/170/10 40/33/14 22/22/10
f 287/126/29 288/167/29 289/167/29
f 295/171/10 267/158/10 269/158/10
f 189/104/204 191/106/204 295/172/204
